<svg xmlns="http://www.w3.org/2000/svg" shape-rendering="geometricPrecision" text-rendering="geometricPrecision" image-rendering="optimizeQuality" fill-rule="evenodd" clip-rule="evenodd" viewBox="0 0 512 500.21"><path fill-rule="nonzero" d="m365.47 230.11-107.44-16.45c4.33 47.99 15.61 102.01 47.74 147.53 34.78 49.27 94.53 89.1 197.42 101.36 5.47.64 9.38 5.63 8.74 11.1-.49 4.19-3.55 7.48-7.42 8.49-32.9 10.99-63.94 16.63-93.04 17.82-79.53 3.27-144.47-26.45-193.97-70.33-49.14-43.55-83.03-101.16-100.81-154.07-7.33-21.78-11.96-42.86-13.83-61.91l-91.15 16.42c-5.4.96-10.59-2.65-11.55-8.05-.54-3 .33-5.92 2.13-8.1L176.27 3.62c3.5-4.24 9.81-4.84 14.05-1.34l1.17 1.15L374.68 213.7c3.62 4.16 3.18 10.48-.98 14.1-2.34 2.05-5.38 2.79-8.23 2.31zm-116.91-38.1 93.14 14.25L184.15 25.41 35.03 205.63l76.61-13.71c5.5-.21 10.14 4.07 10.35 9.58.82 20.04 5.38 43.32 13.59 67.74 16.81 50 48.78 104.4 95.12 145.47 45.97 40.75 106.26 68.36 179.99 65.33 14.31-.59 29.15-2.33 44.51-5.35-82.24-18.33-133.58-56.41-165.76-102.02-37.56-53.2-48.59-116.17-52.3-169.86l.07-2.41c.81-5.44 5.91-9.2 11.35-8.39z"/></svg>